<svg width="36" height="36" viewBox="0 0 36 36" fill="none" xmlns="http://www.w3.org/2000/svg">
<path d="M18 33C26.2843 33 33 26.2843 33 18C33 9.71573 26.2843 3 18 3C9.71573 3 3 9.71573 3 18C3 26.2843 9.71573 33 18 33Z" stroke="white" stroke-width="1.5"/>
<path d="M23.967 13.0725L23.304 12.393C22.6158 11.6817 21.7917 11.1161 20.8805 10.7298C19.9693 10.3435 18.9897 10.1445 18 10.1445C17.0103 10.1445 16.0307 10.3435 15.1195 10.7298C14.2083 11.1161 13.3842 11.6817 12.696 12.393C9.768 15.3915 9.768 20.253 12.696 23.2515C13.3842 23.9628 14.2083 24.5284 15.1195 24.9147C16.0307 25.301 17.0103 25.5 18 25.5C18.9897 25.5 19.9693 25.301 20.8805 24.9147C21.7917 24.5284 22.6158 23.9628 23.304 23.2515C24.1169 22.4153 24.7311 21.4069 25.1011 20.3009C25.4711 19.195 25.5875 18.02 25.4415 16.863M23.967 13.0725H19.989M23.967 13.0725L23.9655 9" stroke="white" stroke-width="1.5" stroke-linecap="round" stroke-linejoin="round"/>
</svg>
